<svg width="46" height="46" viewBox="0 0 46 46" fill="none" xmlns="http://www.w3.org/2000/svg">
<g id="fluent:send-24-filled" clip-path="url(#clip0_1_2222)">
<g id="Group">
<path id="Vector" d="M22.0314 21.6782C22.0317 21.6785 22.032 21.6788 22.0324 21.679L30.3883 27.495C30.4844 27.5618 30.5964 27.6022 30.713 27.6121C30.8296 27.6219 30.9468 27.6009 31.0527 27.5511L40.0099 23.3317C40.8426 22.952 40.7724 21.7469 39.9006 21.468L14.3439 13.2915C14.167 13.2348 13.9777 13.2285 13.7974 13.2733C13.6171 13.3181 13.4528 13.4123 13.3231 13.5453C13.1933 13.6782 13.1031 13.8447 13.0627 14.0261C13.0222 14.2074 13.0331 14.3964 13.0941 14.572L21.8869 39.9232C22.1868 40.788 23.3942 40.828 23.7527 39.9874L27.753 30.9297C27.8006 30.8226 27.819 30.7048 27.8065 30.5882C27.794 30.4717 27.751 30.3605 27.6818 30.2659L21.664 22.0537C21.6273 22.0027 21.6097 21.9405 21.6144 21.878C21.6191 21.8154 21.6457 21.7565 21.6895 21.7116C21.7333 21.6667 21.7916 21.6387 21.854 21.6325C21.9163 21.6263 21.9786 21.6422 22.0303 21.6773C22.0307 21.6776 22.0311 21.6779 22.0314 21.6782V21.6782Z" fill="#F2C94C"/>
</g>
</g>
<defs>
<clipPath id="clip0_1_2222">
<rect width="32" height="32" fill="white" transform="translate(22.8999 45.2515) rotate(-135.694)"/>
</clipPath>
</defs>
</svg>
