<svg width="60" height="38" viewBox="0 0 60 38" fill="none" xmlns="http://www.w3.org/2000/svg">
<g id="Charity-rafiki (1) 1">
<g id="freepik--Box--inject-2">
<path id="Vector" d="M50.574 8.14844H24.1262V29.8806H50.574V8.14844Z" fill="#FD624B"/>
<path id="Vector_2" opacity="0.3" d="M50.574 8.14844H24.1262V29.8806H50.574V8.14844Z" fill="white"/>
<path id="Vector_3" d="M30.6474 8.14844H10.1494V29.8806H30.6474V8.14844Z" fill="#FD624B"/>
<path id="Vector_4" opacity="0.1" d="M30.6474 8.14844H10.1494V29.8806H30.6474V8.14844Z" fill="white"/>
<path id="Vector_5" opacity="0.3" d="M23.2983 8.14844H17.4985V14.9115H23.2983V8.14844Z" fill="white"/>
<path id="Vector_6" opacity="0.1" d="M44.9387 8.14844H39.1389V14.9115H44.9387V8.14844Z" fill="black"/>
<path id="Vector_7" d="M39.4536 20.9385H38.6887C38.6766 20.7174 38.6766 20.4958 38.6887 20.2747C38.6887 19.9284 38.9549 19.2598 39.4391 19.5629C39.5892 19.6542 39.7635 19.4426 39.6134 19.3512C39.5049 19.2863 39.3818 19.2493 39.2553 19.2433C39.1288 19.2373 39.0028 19.2626 38.8886 19.317C38.7744 19.3713 38.6755 19.453 38.6009 19.5547C38.5263 19.6564 38.4783 19.7749 38.4611 19.8996C38.3966 20.2387 38.3803 20.5852 38.4127 20.9289H37.9722C37.7979 20.9289 37.7495 21.1935 37.9286 21.1983H38.4127C38.4127 21.6216 38.4127 22.0449 38.4127 22.4682C38.4127 22.6461 38.6887 22.6125 38.6887 22.4393C38.6887 22.0256 38.6887 21.6168 38.6887 21.2031H39.4052C39.5843 21.2127 39.6327 20.9434 39.4536 20.9385Z" fill="white"/>
<path id="Vector_8" d="M40.722 20.3421C40.7029 20.3374 40.683 20.3374 40.6639 20.3421C39.41 20.2507 39.6085 22.2902 40.8091 22.2661C41.0657 22.2294 41.2994 22.0994 41.4648 21.9012C41.6303 21.703 41.7158 21.4508 41.7048 21.1935C41.7087 21.0696 41.6848 20.9464 41.635 20.8327C41.5851 20.7191 41.5105 20.6179 41.4164 20.5364C41.3224 20.455 41.2113 20.3953 41.0912 20.3617C40.9711 20.3281 40.845 20.3214 40.722 20.3421ZM40.9108 21.9727C40.0055 22.2084 39.715 20.5297 40.6445 20.6307C40.6731 20.6385 40.7032 20.6385 40.7317 20.6307C41.6031 20.5008 41.6031 21.7899 40.9108 21.9727Z" fill="white"/>
<path id="Vector_9" d="M43.7139 20.8472C43.3411 19.6446 41.4627 20.6307 42.0001 21.7274C42.1372 21.9425 42.3484 22.1006 42.5943 22.1723C42.8402 22.2439 43.1039 22.2243 43.3362 22.117C43.4527 22.0724 43.5577 22.0026 43.6437 21.9127C43.7297 21.8227 43.7945 21.715 43.8334 21.5971C43.8723 21.4793 43.8844 21.3543 43.8687 21.2313C43.8531 21.1082 43.8101 20.9902 43.7429 20.8856L43.7139 20.8472ZM42.2179 21.535C41.9613 20.8039 43.1862 20.092 43.4573 20.9578C43.4603 20.973 43.4667 20.9873 43.4759 20.9997C43.4851 21.0122 43.4969 21.0225 43.5105 21.0299C43.985 21.8717 42.4793 22.295 42.2179 21.535Z" fill="white"/>
<path id="Vector_10" d="M45.8151 22.1748C45.7328 21.0685 45.6553 19.9621 45.573 18.8606C45.573 18.6826 45.2874 18.7163 45.2971 18.8895L45.3987 20.2844C45.2519 20.2372 45.0961 20.2239 44.9433 20.2457C44.7905 20.2674 44.6448 20.3237 44.5172 20.41C44.3897 20.4963 44.2837 20.6105 44.2074 20.7438C44.1311 20.8771 44.0865 21.026 44.077 21.1791C44.0383 21.9246 44.9097 22.1796 45.5294 22.0978V22.2036C45.5536 22.3768 45.8296 22.3479 45.8151 22.1748ZM44.3627 21.2993C44.3547 21.1791 44.3764 21.0588 44.4258 20.9487C44.4752 20.8387 44.5509 20.7423 44.6463 20.6679C44.7416 20.5935 44.8539 20.5433 44.9732 20.5218C45.0925 20.5002 45.2153 20.5079 45.331 20.5441C45.3579 20.5513 45.3863 20.5513 45.4132 20.5441C45.4471 20.9674 45.4762 21.3907 45.5101 21.8188C45.0889 21.8765 44.4256 21.79 44.353 21.2993H44.3627Z" fill="white"/>
</g>
</g>
</svg>
