<svg width="12" height="12" viewBox="0 0 12 12" fill="none" xmlns="http://www.w3.org/2000/svg">
<g id="bx:bx-star">
<path id="Vector" d="M3.25801 7.1615L2.51301 10.3875C2.48994 10.4852 2.49687 10.5876 2.53289 10.6812C2.5689 10.7749 2.63233 10.8556 2.7149 10.9127C2.79746 10.9697 2.89532 11.0006 2.99569 11.0012C3.09606 11.0018 3.19428 10.9721 3.27751 10.916L6.00001 9.101L8.72251 10.916C8.80768 10.9725 8.90812 11.0017 9.01033 10.9994C9.11254 10.9972 9.2116 10.9637 9.29421 10.9035C9.37682 10.8432 9.439 10.7592 9.4724 10.6625C9.50579 10.5659 9.5088 10.4614 9.48101 10.363L8.56651 7.163L10.8345 5.122C10.9072 5.0566 10.959 4.97133 10.9837 4.87676C11.0084 4.78218 11.0049 4.68244 10.9735 4.58987C10.9421 4.4973 10.8842 4.41596 10.8071 4.35591C10.73 4.29586 10.637 4.25974 10.5395 4.252L7.68901 4.025L6.45551 1.2945C6.41618 1.20658 6.35224 1.13192 6.27142 1.07953C6.19059 1.02714 6.09633 0.999268 6.00001 0.999268C5.90369 0.999268 5.80943 1.02714 5.72861 1.07953C5.64778 1.13192 5.58384 1.20658 5.54451 1.2945L4.31101 4.025L1.46051 4.2515C1.36474 4.25909 1.27318 4.29411 1.19679 4.35237C1.1204 4.41063 1.06241 4.48966 1.02976 4.58002C0.99711 4.67037 0.991182 4.76822 1.01269 4.86185C1.03419 4.95549 1.08221 5.04094 1.15101 5.108L3.25801 7.1615V7.1615ZM4.68451 4.9985C4.77376 4.99147 4.85947 4.96056 4.93266 4.90901C5.00586 4.85746 5.06383 4.78716 5.10051 4.7055L6.00001 2.715L6.89951 4.7055C6.93619 4.78716 6.99417 4.85746 7.06736 4.90901C7.14055 4.96056 7.22627 4.99147 7.31551 4.9985L9.30151 5.156L7.66601 6.628C7.52401 6.756 7.46751 6.953 7.51951 7.137L8.14601 9.3295L6.27801 8.084C6.19602 8.02897 6.09951 7.99958 6.00076 7.99958C5.90202 7.99958 5.8055 8.02897 5.72351 8.084L3.77151 9.3855L4.29651 7.1125C4.31576 7.0289 4.31318 6.94176 4.28901 6.85944C4.26484 6.77713 4.2199 6.70242 4.15851 6.6425L2.63951 5.1615L4.68451 4.9985V4.9985Z" fill="#F2C94C"/>
</g>
</svg>
