<svg width="30" height="30" viewBox="0 0 30 30" fill="none" xmlns="http://www.w3.org/2000/svg">
<g id="noto:fire">
<path id="Vector" d="M8.33452 9.54604C8.20093 10.971 8.10718 13.4929 8.94859 14.5664C8.94859 14.5664 8.55249 11.796 12.1033 8.32026C13.533 6.92104 13.8634 5.01791 13.3642 3.59057C13.0806 2.78198 12.5626 2.11401 12.1126 1.6476C11.8501 1.37338 12.0517 0.92104 12.4337 0.937446C14.7447 1.04057 18.49 1.68276 20.0814 5.67651C20.7798 7.42963 20.8314 9.24135 20.4986 11.0835C20.2876 12.2601 19.5376 14.8757 21.2486 15.1968C22.4697 15.4265 23.0603 14.4562 23.3251 13.7578C23.4353 13.4671 23.8173 13.3945 24.0236 13.6265C26.0861 15.9726 26.2619 18.7359 25.8353 21.1148C25.0103 25.7132 20.3533 29.0601 15.7267 29.0601C9.94702 29.0601 5.34624 25.7531 4.15327 19.7671C3.6728 17.3507 3.91655 12.5695 7.64312 9.19448C7.91968 8.94135 8.37202 9.16635 8.33452 9.54604V9.54604Z" fill="url(#paint0_radial_1_2228)"/>
<path id="Vector_2" d="M17.838 18.1453C15.7075 15.4031 16.6615 12.2742 17.1841 11.0274C17.2544 10.8633 17.0669 10.7086 16.9193 10.8094C16.0029 11.4328 14.1255 12.9 13.2513 14.9649C12.0677 17.7563 12.1521 19.1227 12.8529 20.7914C13.2747 21.7969 12.7849 22.0102 12.5388 22.0477C12.2997 22.0852 12.0794 21.9258 11.9036 21.7594C11.3979 21.2739 11.0376 20.6571 10.863 19.9781C10.8255 19.8328 10.6357 19.793 10.549 19.9125C9.8927 20.8195 9.55286 22.275 9.53645 23.3039C9.48489 26.4844 12.1122 29.0625 15.2904 29.0625C19.2958 29.0625 22.2138 24.6328 19.9122 20.9297C19.2443 19.8516 18.6161 19.1461 17.838 18.1453Z" fill="url(#paint1_radial_1_2228)"/>
</g>
<defs>
<radialGradient id="paint0_radial_1_2228" cx="0" cy="0" r="1" gradientUnits="userSpaceOnUse" gradientTransform="translate(14.582 29.133) rotate(-179.751) scale(16.544 27.1454)">
<stop offset="0.314" stop-color="#FF9800"/>
<stop offset="0.662" stop-color="#FF6D00"/>
<stop offset="0.972" stop-color="#F44336"/>
</radialGradient>
<radialGradient id="paint1_radial_1_2228" cx="0" cy="0" r="1" gradientUnits="userSpaceOnUse" gradientTransform="translate(15.5107 12.6699) rotate(90.5787) scale(17.3101 13.0271)">
<stop offset="0.214" stop-color="#FFF176"/>
<stop offset="0.328" stop-color="#FFF27D"/>
<stop offset="0.487" stop-color="#FFF48F"/>
<stop offset="0.672" stop-color="#FFF7AD"/>
<stop offset="0.793" stop-color="#FFF9C4"/>
<stop offset="0.822" stop-color="#FFF8BD" stop-opacity="0.804"/>
<stop offset="0.863" stop-color="#FFF6AB" stop-opacity="0.529"/>
<stop offset="0.91" stop-color="#FFF38D" stop-opacity="0.209"/>
<stop offset="0.941" stop-color="#FFF176" stop-opacity="0"/>
</radialGradient>
</defs>
</svg>
