<svg width="14" height="14" viewBox="0 0 14 14" fill="none" xmlns="http://www.w3.org/2000/svg">
<g id="grommet-icons:location">
<path id="Vector" d="M6.99992 12.8333C6.99992 12.8333 2.33325 9.33329 2.33325 5.83329C2.33325 2.91663 4.66659 1.16663 6.99992 1.16663C9.33325 1.16663 11.6666 2.91663 11.6666 5.83329C11.6666 9.33329 6.99992 12.8333 6.99992 12.8333ZM6.99992 7.58329C7.46405 7.58329 7.90917 7.39892 8.23736 7.07073C8.56554 6.74254 8.74992 6.29742 8.74992 5.83329C8.74992 5.36916 8.56554 4.92404 8.23736 4.59586C7.90917 4.26767 7.46405 4.08329 6.99992 4.08329C6.53579 4.08329 6.09067 4.26767 5.76248 4.59586C5.43429 4.92404 5.24992 5.36916 5.24992 5.83329C5.24992 6.29742 5.43429 6.74254 5.76248 7.07073C6.09067 7.39892 6.53579 7.58329 6.99992 7.58329V7.58329Z" stroke="#EB5757"/>
</g>
</svg>
