<svg width="20" height="22" viewBox="0 0 20 22" fill="none" xmlns="http://www.w3.org/2000/svg">
<g id="Group">
<path id="Vector" d="M2.64552 9.01992C2.6824 8.56049 2.89096 8.13181 3.22969 7.81924C3.56842 7.50667 4.01245 7.33316 4.47336 7.33325H15.5265C15.9874 7.33316 16.4315 7.50667 16.7702 7.81924C17.1089 8.13181 17.3175 8.56049 17.3544 9.01992L18.0904 18.1866C18.1107 18.4388 18.0785 18.6926 17.9959 18.9318C17.9132 19.171 17.782 19.3905 17.6104 19.5765C17.4388 19.7625 17.2305 19.9109 16.9987 20.0125C16.7669 20.114 16.5166 20.1665 16.2635 20.1666H3.73636C3.48329 20.1665 3.23297 20.114 3.00117 20.0125C2.76937 19.9109 2.56111 19.7625 2.3895 19.5765C2.21788 19.3905 2.08663 19.171 2.00401 18.9318C1.9214 18.6926 1.88919 18.4388 1.90944 18.1866L2.64552 9.01992V9.01992Z" stroke="black" stroke-width="2" stroke-linecap="round" stroke-linejoin="round"/>
<path id="Vector_2" d="M13.6666 10.0833V5.49992C13.6666 4.52746 13.2803 3.59483 12.5927 2.90719C11.905 2.21956 10.9724 1.83325 9.99995 1.83325C9.02749 1.83325 8.09486 2.21956 7.40722 2.90719C6.71959 3.59483 6.33328 4.52746 6.33328 5.49992V10.0833" stroke="black" stroke-width="2" stroke-linecap="round" stroke-linejoin="round"/>
</g>
</svg>
