<svg width="65" height="65" viewBox="0 0 65 65" fill="none" xmlns="http://www.w3.org/2000/svg">
<g id="ri:time-line" clip-path="url(#clip0_1_2219)">
<path id="Vector" d="M39.1682 52.5187C28.3559 56.454 16.4013 50.8795 12.4659 40.0672C8.53052 29.2548 14.1051 17.3002 24.9174 13.3648C35.7297 9.42945 47.6844 15.004 51.6197 25.8163C55.5551 36.6287 49.9806 48.5833 39.1682 52.5187ZM37.7432 48.6033C41.8969 47.0915 45.2799 43.9915 47.1479 39.9854C49.016 35.9793 49.2162 31.3951 47.7044 27.2414C46.1925 23.0877 43.0926 19.7047 39.0865 17.8366C35.0803 15.9685 30.4962 15.7684 26.3425 17.2802C22.1888 18.792 18.8058 21.892 16.9377 25.8981C15.0696 29.9042 14.8694 34.4884 16.3813 38.6421C17.8931 42.7958 20.9931 46.1788 24.9992 48.0469C29.0053 49.915 33.5895 50.1151 37.7432 48.6033V48.6033ZM34.0005 32.2292L41.8313 29.379L43.2564 33.2944L31.5102 37.5697L26.5224 23.8658L30.4378 22.4407L34.0005 32.2292Z" fill="white"/>
</g>
<defs>
<clipPath id="clip0_1_2219">
<rect width="50" height="50" fill="white" transform="translate(-2.28882e-05 17.9999) rotate(-20)"/>
</clipPath>
</defs>
</svg>
