<svg width="16" height="16" viewBox="0 0 16 16" fill="none" xmlns="http://www.w3.org/2000/svg">
<g id="fluent:play-16-filled">
<g id="Group">
<path id="Vector" d="M6.235 2.19205C6.00672 2.06373 5.74882 1.99741 5.48695 1.99969C5.22508 2.00197 4.96837 2.07277 4.74236 2.20504C4.51634 2.33731 4.32889 2.52645 4.19865 2.75365C4.06842 2.98084 3.99993 3.23817 4 3.50005V12.5001C4.0001 12.7618 4.06872 13.019 4.19903 13.2461C4.32934 13.4732 4.5168 13.6622 4.74279 13.7943C4.96878 13.9265 5.22542 13.9972 5.4872 13.9994C5.74898 14.0016 6.00679 13.9353 6.235 13.8071L14.235 9.30705C14.4668 9.17651 14.6597 8.98667 14.794 8.757C14.9282 8.52733 14.999 8.26608 14.999 8.00005C14.999 7.73402 14.9282 7.47277 14.794 7.2431C14.6597 7.01343 14.4668 6.82359 14.235 6.69305L6.235 2.19305V2.19205Z" fill="#F2C94C"/>
</g>
</g>
</svg>
