<svg width="46" height="46" viewBox="0 0 46 46" fill="none" xmlns="http://www.w3.org/2000/svg">
<g id="gg:shape-zigzag">
<g id="Group">
<path id="Vector" fill-rule="evenodd" clip-rule="evenodd" d="M5.8784 18.5077C5.07922 17.8131 3.86826 17.898 3.17379 18.6973C2.47945 19.4964 2.56432 20.7071 3.36335 21.4015L9.15013 26.4308L10.5326 27.6328C11.3663 28.3577 12.6299 28.2693 13.3546 27.4353L14.557 26.0513L16.1965 24.167C16.9213 23.3339 18.1841 23.2459 19.0175 23.9703L21.848 26.4308L23.2319 27.6332C24.0659 28.3579 25.3296 28.269 26.0539 27.4347L27.255 26.0513L28.8907 24.1699C29.6154 23.3364 30.8785 23.2481 31.7121 23.9726L34.5402 26.4308L35.9241 27.6332C36.7581 28.3579 38.0217 28.269 38.7461 27.4347L39.9471 26.0513L42.4626 23.159C43.1575 22.36 43.0728 21.1488 42.2735 20.4542C41.4745 19.76 40.264 19.8448 39.5697 20.6436L38.3669 22.0274C37.6423 22.8609 36.3791 22.9494 35.5455 22.2248L30.7276 18.0376C30.2271 17.6026 29.4688 17.6558 29.0339 18.1563L27.308 20.1427C27.3075 20.1433 27.3079 20.1442 27.3086 20.1442C27.3094 20.1442 27.3098 20.145 27.3093 20.1456L25.2858 22.4743C24.776 23.061 23.8871 23.1233 23.3005 22.6135L18.6388 18.562C17.8051 17.8374 16.5418 17.9259 15.8172 18.7596L15.4368 19.1973L12.9768 22.0274C12.2522 22.8609 10.989 22.9494 10.1554 22.2248L5.8784 18.5077Z" fill="#EB5757"/>
</g>
</g>
</svg>
